# xmcd
#
# Track frame offsets:
#	183
#	11930
#	26750
#	43743
#	54580
#	64530
#	78183
#	90255
#	106143
#	121243
#
# Disc length: 1779 seconds
#
# Revision: 1
# Processed by: cddbd v1.5.1PL0 Copyright (c) Steve Scherf et al.
# Submitted via: dBpowerAMP V4.0
#
DISCID=7306f10a
DTITLE=Skeeter Davis and Teddy Nelson - You Were Made For Me
DYEAR=1900
DGENRE=Country
TTITLE0=We Know How to Rock
TTITLE1=Who´s Gonna Tell Maria
TTITLE2=I Fell in Love
TTITLE3=Dear John Letter
TTITLE4=If I Don´t Have You
TTITLE5=You Were Made for Me
TTITLE6=Diggy Liggy Lo
TTITLE7=You and Me
TTITLE8=Please Help Me I´m Falling - I Can? t Help You, I'm Falling Too
TTITLE9=This Love Is True
EXTD=
EXTT0=
EXTT1=
EXTT2=
EXTT3=
EXTT4=
EXTT5=
EXTT6=
EXTT7=
EXTT8=
EXTT9=
PLAYORDER=
